<mxfile host="app.diagrams.net" modified="2023-12-25T06:25:03.646Z" agent="Mozilla/5.0 (X11; Linux x86_64) AppleWebKit/537.36 (KHTML, like Gecko) Chrome/119.0.0.0 Safari/537.36" etag="CqvyzPVfqzcUikOjh0XH" version="22.1.11" type="github">
  <diagram name="第 1 页" id="KU_RBN23aDEWU_ucHdVJ">
    <mxGraphModel dx="965" dy="630" grid="0" gridSize="10" guides="1" tooltips="1" connect="1" arrows="1" fold="1" page="0" pageScale="1" pageWidth="1169" pageHeight="827" math="0" shadow="0">
      <root>
        <mxCell id="0" />
        <mxCell id="1" parent="0" />
        <mxCell id="hs8RinKsXGh21UuPGvd6-4" value="" style="edgeStyle=none;curved=1;rounded=0;orthogonalLoop=1;jettySize=auto;html=1;fontSize=12;startSize=8;endSize=8;entryX=0;entryY=0.5;entryDx=0;entryDy=0;" edge="1" parent="1" source="hs8RinKsXGh21UuPGvd6-1" target="hs8RinKsXGh21UuPGvd6-3">
          <mxGeometry relative="1" as="geometry" />
        </mxCell>
        <mxCell id="hs8RinKsXGh21UuPGvd6-7" value="" style="edgeStyle=none;curved=1;rounded=0;orthogonalLoop=1;jettySize=auto;html=1;fontSize=12;startSize=8;endSize=8;" edge="1" parent="1" source="hs8RinKsXGh21UuPGvd6-1" target="hs8RinKsXGh21UuPGvd6-6">
          <mxGeometry relative="1" as="geometry" />
        </mxCell>
        <mxCell id="hs8RinKsXGh21UuPGvd6-11" style="edgeStyle=none;curved=1;rounded=0;orthogonalLoop=1;jettySize=auto;html=1;exitX=1;exitY=1;exitDx=0;exitDy=0;entryX=0;entryY=0.5;entryDx=0;entryDy=0;fontSize=12;startSize=8;endSize=8;" edge="1" parent="1" source="hs8RinKsXGh21UuPGvd6-1" target="hs8RinKsXGh21UuPGvd6-10">
          <mxGeometry relative="1" as="geometry" />
        </mxCell>
        <mxCell id="hs8RinKsXGh21UuPGvd6-1" value="" style="ellipse;whiteSpace=wrap;html=1;fontSize=16;" vertex="1" parent="1">
          <mxGeometry x="-80" y="111" width="120" height="80" as="geometry" />
        </mxCell>
        <mxCell id="hs8RinKsXGh21UuPGvd6-3" value="&lt;p style=&quot;font-size: medium; margin: 0px; line-height: 1px;&quot; align=&quot;center&quot;&gt;Xeon (data center &amp;amp;&amp;amp; workstations)&lt;/p&gt;" style="rounded=1;whiteSpace=wrap;html=1;fontSize=16;" vertex="1" parent="1">
          <mxGeometry x="142" y="19" width="308" height="60" as="geometry" />
        </mxCell>
        <mxCell id="hs8RinKsXGh21UuPGvd6-13" style="edgeStyle=none;curved=1;rounded=0;orthogonalLoop=1;jettySize=auto;html=1;entryX=0;entryY=0.5;entryDx=0;entryDy=0;fontSize=12;startSize=8;endSize=8;" edge="1" parent="1" source="hs8RinKsXGh21UuPGvd6-6" target="hs8RinKsXGh21UuPGvd6-12">
          <mxGeometry relative="1" as="geometry" />
        </mxCell>
        <mxCell id="hs8RinKsXGh21UuPGvd6-6" value="&lt;p style=&quot;font-size: medium; margin: 0px; line-height: 1px;&quot; align=&quot;center&quot;&gt;Core (laptop &amp;amp;&amp;amp; desktop)&lt;/p&gt;" style="rounded=1;whiteSpace=wrap;html=1;fontSize=16;" vertex="1" parent="1">
          <mxGeometry x="150" y="121" width="233" height="60" as="geometry" />
        </mxCell>
        <mxCell id="hs8RinKsXGh21UuPGvd6-10" value="&lt;p style=&quot;font-size: medium; margin: 0px; line-height: 1px;&quot; align=&quot;center&quot;&gt;ATOM (mobile &amp;amp;&amp;amp; IoT)&lt;/p&gt;" style="rounded=1;whiteSpace=wrap;html=1;fontSize=16;" vertex="1" parent="1">
          <mxGeometry x="150" y="223" width="233" height="60" as="geometry" />
        </mxCell>
        <mxCell id="hs8RinKsXGh21UuPGvd6-12" value="" style="shape=image;verticalLabelPosition=bottom;labelBackgroundColor=default;verticalAlign=top;aspect=fixed;imageAspect=0;image=data:image/png,iVBORw0KGgoAAAANSUhEUgAAAH8AAACWCAYAAAD39ldZAAAACXBIWXMAAA7EAAAOxAGVKw4bAAAgAElEQVR4nO2dd1gU1/7/31vYgggWqgKWEA1BrolGo49RsaaBSayxojHoD41eryW5ar4RjRcN0YuPxpKoQUUsxCiKBSOKJYjBLgiCFXal6O6ywPbdmfP7g8vEdQsLrAKyr+fZh4c5Z875zLynnDlzzntYcNBgsKLIWRAMbKj6uQBACAkBENJQQTRXum5Ax7tSKxkIBVdnAhYAQgCaBhRaFsDi2KV+7v/+hgBYZpcSHdhMu5aANfGDPGQI6NQWAoMeZRoulDoORCIJCnXudqmfW3MWBw2Fs7MAbI0ewa00CPBn48RdoIgjAAC81gbQGgBvF8CFBzxVAR7OwIMyoI0QEFcAEpX18h3iN2J0WqBcQaOYDRy9z8f/667BqTwW3ATA0M6AXAMM7AjwOICoHAhoA1wUAe7OwIUC4Owj6+U7xG/EaHUAEXDAAQvTg7U4c/d/BwQF0ATQGIBrRYBPS+CRHFDoqn7iCuCJsubyHeI3IMIa9n5lpRYCjjPyDFycu89FSSUPKrUUaOmCrVfrX79D/AakXUvr6UUKLqTKcuT+r6VP0wDlxLZb/Q7xG5DIXkDaI6BAXnUZfx4iaAXNC6zfIX4D0rMdcP+fgIGuarwBQJkGP3bZgJiXUb9D/EYAl13VQgcAd2eoEMWSvIx663QDKSgogFartXcsJmi1WsTHx0OlquGBFYBCocCyZcugVNrQzH2GpKQknDp1CjRNQ6fTmf29qtRJ/PDwcOzfvx8AcO3aNUycOBF9+/bFsGHDsGnTJhBi5gb2DDRN45tvvsG1a9es5nNycoJIJMKiRYtA07TVvC4uLuDxeIiMjIRSqcT777+PoUOHmvzGjh3LrKNSqfDzzz+jS5cuSE9Px4gRI9C/f3+MGjUKo0aNwmeffYZ3333XYp05OTlYsGABKIqyGlujhhASRWpBYWEh0Wg0hBBCLl68SDIzM4lcLicZGRmkT58+5MiRI1bXj4uLI//+979tqouiKDJjxgyyd+9eq/nu3LlDKisryYEDBwhFUaSyspJUVFQY/e7fv0+GDBnCrLNhwwayadMm8vTpU3LhwgWSlZVFpk+fzqQnJyeTWbNmWa13xYoVZMuWLTZti41ENWrxKYoiNE2bTZs5cyZZu3atxXUVCgUJCQkhBQUFNtd36NAh8t577xG5XG4xz9ixY8nt27etllNSUsKIn5ubS8aPH090Oh1ZvHgx+fXXX8mtW7fI5MmTCSGE0DRNRo4cSa5du1ZjmQMHDrQaWy15aeLX6bIfGhqK48ePmyxXKpV48OABunfvbnHdCxcuoFOnTvD397e5vrS0NPD5fOzatasu4Zpl3759qKysxMSJEyEWixEeHg6dToecnByUl5fjxo0bKC0txYULFxAXF2exHC8vL7z55ps4d+6c3WJ7Wdilx2DLli1YvHgxJk2ahOnTp2PIkCEW8169ehXvvPOOzWVXVlYiMzMTsbGx+P3331FRUWGPkLFs2TLs27cPFEXh+++/B5vNhkqlAk3TSElJQfv27fH1119Do9Hg1KlTVsvq2bMnrl61Q5fbS8Yu4vv6+qJTp07w8/NDQkIC8vPzLeYtKSmBp6enzWXHx8ejV69eCA4OxpAhQ7Bjxw47RFzF8uXLMXHiRHh5eUEul0MqlWLQoEE4cOAA3N3dMWLECFRWViIsLMxqOZ6ennj69Knd4npZ2EX80NBQzJgxA+vXr0ffvn2xevVqi3l1Oh0EAoFN5UqlUiQkJCAiIgIAMH36dCQmJkIkEtU75szMTJw6dQq7du3Cl19+iXPnzqGwsBDBwcEICAjAoUOHIBKJkJ6ejo8//thqWTwer0k+Etq9k+f1119HRkaGxfRWrVqhrKysxnJomkZUVBQGDRqE4OBgAEC7du0wceJEfPfdd9i+fTvY7Lofuz169MDZs2fh5ubGLJs2bRrmzJmDYcOGITw8HMnJyfjyyy/h6upqtayysjK0bt26zrE0FPU+80+ePAmNpqpvUiKR4ODBg+jXr5/F/F27dsWdO3dqLDc2NhYFBQVYtGiR0fIvv/wSCoUCq1atqlfcbDYbhYWF2L59O2bOnIm4uDgUFBSge/fuaN++PYKCgpCdnY3+/fvXWFZOTg4CAwPrFU9DUG/xU1NT0a9fPwwfPhwff/wxunbtinnz5lnMP2DAAGRkZFi8TOp0OqxYsQJHjhzB+vXrjc5MoKrjJzY2FqdPn8aSJUugUChsjlWr1TJXizVr1uCnn34Cj8fDokWLkJOTg/HjxwMAVq1ahcLCQowZMwZTp07F5cuXLZZpMBiQkZFh00HSKCG1fM5/HrlcTkQiEdFqtTblnzNnDvntt9/MpsXExJCwsDDy8OFDq2XcuXOHfPTRR0yfgqXnfIqiyI8//khiY2PJ1KlTSWRkpEmegwcPktDQUHLr1i0yYcIEMnHiRCKRSAghhOzdu5f07t2bbNy40Wwchw4dqrEjqJZENSnxa4tYLCahoaGkpKTEJK28vNzmDpPy8nKi0+kIIYRs3LiRPH782Gy+ffv2kW3btpE9e/YQmUxmkn7nzh2Sl5dHRCIRiYuLIwaDwSg9Ly+PFBYWmqz35MkTEhoaSkQikU3x2shLE59VLT5e8uhdsVgMLpcLb2/vl1mtXSktLYVWq61Vh5UNLGexWFH2LNASDfZK19fXt6GqthteXl4NHUK9sN+YIAdNDof4zRiH+M0Yh/jNGIf4zRguAEyaNKlf69atsxs6GAfAypUr/3xZdXEBoLS0dOvTp08dV4FGwLp16840dAwOHDhw4MCBAwcOHDhw4KDJUv0+PwQOK7YXwVkWi3W2oYOwhMOK7cVztqEDsISjV68Z4xC/GeMQv45oNJoaPQMaOw7x64BKpYJYLIbBYIBEIqnRjKKx4vDkqSUqlQpFRUXw8/PD06dPweFwwGKxGjqsOuE482vBs8JLJBJwOBzweDw8fvwYcrm8yV0BHGd+LVCpVIzwer0eer0eHh4ecHJygkqlanJXAMeZbwMymQxqtRpt27Zlzng/Pz+0aNECIpEIzs7OTXIMf6O2YqsmKysLa9eutZiu0+nwxx9/mF0+ZcoUlJSU1LlumUwGpVKJoqIiaDQauLm5oVWrVhCLxfDw8ACHw7GbW8jLpt5WbJmZmRg9erTRLyEhwer6tlqxVdOhQwckJycjPT3dbLparUZ8fDxWrlyJ8vJy5OXlIS8vDw8fPkSHDh2wc+dOZlleXh7Ky8tNyjBnq1Z9xgsEAnh4eKCoqAgcDgcCgQBarRZ6vR4sFstkJnFToU73/Pj4eMZaRalUQqlUIioqiklv166d1fV37doFNpuNHj16mKTJZDIkJiaaLA8KCkJmZiaysrKMln/++edo1aoVfvnlFyxfvhyXLl3CkSNHAACPHj2Ct7c3BAIB1q9fz6wzefJk9OnTx6icN998E61atcK2bdswc+ZMyGQylJWVgcPhQKPRoHXr1hAIBCgqKkK7du3g5eUFLpfbpKed1Un89u3bGzVuBAKBVbPCZ1Eqldi5cyd27txpNp3NZoPP5xstMxgMuHjxIoKDg03SWCwWpFIp3NzcGDuY999/H3l5eZg9ezbmzp2L7t2749GjR5BIJFbNoGbMmIFx48YhNDQUer0enp6eKCkpAYvFgk6nQ9u2bUEIgVgshp+fX5Nr4JmF1HKK9ocffkiOHj1KCCHkzJkz5NNPP7V53RMnTpBp06bVpjqi1WrJW2+9RSoqKsymr1+/nkyePJkUFxcTQgjJysoioaGh5OrVq0yenJwcMnjw4Brn/c+dO5ccPnyYPHr0iBQVFRGpVEru3btHxGIxKSgoIPfv3ydFRUUm07gtENXQ2lrDLq39goICvPvuuwgLC8P69eutmhPV1orNFubMmYP+/fsjJiYGIpEI06ZNg1qtRnR0NMLCwvDBBx9g/vz5YLFYWLRoEWMj8zwymQzdunVDdnY2/Pz8oNPpoFAo4OPjA0II2Gw2XFxc4OPjAw7HPl+4akjq/Zzfp08fpKSkgKZp3L59G6tWrYJOp8PChQvN5i8pKUHXrl2tlrl3715kZ/89h6S6D33lypXgcv8O+Y033sDkyZMBABEREaAoChwOB6tXrwaHw0FQUBDEYjHeeOMNyGQyEEJw8OBBlJeXmziCyWQyaDQauLu7Iz8/H8XFxfDz84NIJIJWq4WTkxMA1MpGrrFTb/GFQiGEQiEAwNvbG2VlZdi+fbtF8W2xYuvWrRs8PDyY/w0GA1JSUtC/f3+jdd3d//7EWHFxMdLT0zF69GiwWCycPHkSISEh+Oc//4no6GikpaXBYDBg7ty5JvXJZDJIpVK0aNECQJXxo06nYw6AwsLCJt+4M4fde/iEQqFVizRbrNiCg4MZ+zUAzG1k4MCBaNnS/LdJ/vrrL6SlpWH06NGoqKiAi4uLTfFKpVJoNBq4urpCpVJBoVDA09MTvr6+kEqlKC4uhr+/f5PrurWFet/zs7KyGD/8kpIS7NixA4MHD7aY31Yrttpy48YNpi1x//59i4+bOp3OyEuXz+dDp9OBEAKBQACxWIwOHTrg6dOnMBgMoGkahJBX4h7/PPUWPy0tDQMGDMDw4cMRFhaGbt26Yfbs2Rbz12TFRtM0KIoy+VlKq24PXLp0Cb169UJlZSVSUlIsegFWVFTg8OHDMBgMePz4MVxcXODh4QG1Wg2NRoPMzEwEBQVBr9eDx+PBz8/vlRQeqONl/1nH7blz52Ly5MlQKBTw8vICj8ezum5AQAC6deuGI0eOYPTo0SbpK1aswNmzZ02Wu7m54ZNPPjFZ/u6772Lq1KlQKBQQCoWYOXMmQkJC0KVLF6N8bdu2xYEDB/D48WMEBARAJBJBr9cDAHOLOHbsGPz9/dGxY0ewWKxXqnFnEdKIrNjqQlFREUlKSiI5OTkkLi7O6FsAJ0+eJBUVFUSv15PDhw+TPXv2kOvXrxOFQkEePnzIPK8XFRWRMWPGkEuXLjH9BXYgqqG1rRHyksUnhBCRSGTPnWwTarWaFBQUEL1eTwipOgirvxhy8+ZNcvfuXaJQKJh0OxDV0Npa45WwYiOEQKFQgKIosFgs8Pl8s4+TAoEAer0earUaLVu2ZNyy+Xw+3N3dIRQKmce95kCTH8xR3Qvn4uICLpcLiqKg0+mgUqng7Oxskp/P56O4uBhA1WOpXC6HQqEAi8Vqks7Z9aFJi6/X66HRaNCmTRtmGZvNhpOTE7RaLSoqKkzs0j08PEBRFEpLS+Hu7g4+nw8ul9vshAea8Eie6su3JS98Pp8PoVBoMtCCz+fD2dkZ/v7+kEgkEAqFzVJ4oIme+TUJX011f7y5KwCHw7G3Z26To8md+daEJ2a6YJ2cnMxeAYCqA+BV7cCxBS4A/PDDD+/5+fk1dCw2QdO0ybsDmqaZbligaoDH8+Ppn017WYwdO7ZRj/bgAkBhYeFjrVZ7oaGDsQaLxWJzuVyeXq9nXsaz2WwOn89vzWazuYQQQtO0nsVicdhsNgcAdDpdhV6vf/ZDvBwOh8OjKEr9MmLWarXnX0Y9daVRH5nVrF+/nu/k5PR6ZGRk9jPLXPl8figAF5qmb7/xxht/DRo0yAAAGzZsaOfk5DSYxWIJKIr6fdasWcxrxO3bt7dUqVTuc+bMedgAm9KoaBL3fDabHdC2bdvc6v+3b9/e8hnhL0dGRqZXCw8Ac+bMKeJwOGerVmUbjRKdPn16JZfL1f30009tX9oGNFIavfg///yzM4/H048dO5YZU01RVA8ALiwWKzMyMvI6AFy5csXp7NmzfdPT0z0BICIiQkwIUbHZbI/nyxQIBEoOh2N+YEAzotGLX1ZW5uTk5GT0/tfZ2fm6wWA4MWPGjBtAlfBKpfJDFosVTNO0T3U+QoiOoiiTfl6JRKKnabpJPubak0a/AzQajdJgMBiNzJg0aVIFgArgb+EBeNM0/SAtLS0LABITE4VSqdQNQPHzZbq6ugoFAsFLafQ1Zhr9mR8VFWUAINu0aVNnc+lqtfof+J/w586dOxMVFUUDYJWVlfVns9ksQsjd58pjs9nsduHh4Y9fQviNmkYvPgBERESUslgsRVxcXKvn0wwGw32KotKfFX7Lli39AXQkhIhnzZqV92z+du3aBdI0nft8Oc2RJmXFVlpa2srFxUXTokULswPvaZpGfn5+B5lM5i4QCFTdunXL5/F4TENRJBJ5+Pj4SLlc7svyU3FYsdkLLy8vZli1ueFiFRUVIITAx8cH/v7+Rl23ZWVlaN++fb0+vlxHzr7sCm2l0Tf4nqdly5aorKwEAJMDwNnZGe7u7mjTpo2J8K6urg0hfKOmSe6Nli1bQqvVmowA5vF4zJz5aqqFb84vcCzRJMUH/j4ArJlEOIS3TpMVH6g6AHQ6HZRKpdFyiqIglUrRqlUrh/BWaHL3/Odp2bIl1Go1ZDIZOBwOKIoCm81GmzZtXo358y+QJi8+8PdkUb1eDw6H42jY2cgrIX411cO2HNiG4xRpxjQJK7bs7GwsWLDAap709HSkpqYy/yuVSmYS55QpU5jHwqZqm/YiqNNlPzw8HF988QWGDx+Or776ymye1atXIyAgwGwaTdNYvHgxxo0bZ+LIFRcXh3v37hktoygKaWlpWLhwoYkhU8eOHREREYHXXnsNX3zxBd566y24u7tj/vz5+Pbbb+Hn54fS0lIm/5gxY3Dy5EmTmHJycrB9+3bExMQ0myeEeluxLVq0yCgtIyMDqamp6NzZ7Es4ANat2AYPHmzW2WvKlClmy3J2dsbdu3chk8kwcOBA/PXXXyYzdG3heSu25kD1i50o1KJvn6ZpsFgss49SM2fORJ8+fTBt2jSz6yqVSoSGhmLnzp1Wx83HxsbizJkzZp041Go1Xn/9dcTExAAAjh49ivz8fCY9ICAAubm5uH37tsm6paWlZs/86rRx48bh8OHD9jJWXM5isaLsUdALg9TDiu1ZHj58SHr37k2kUqnFdW21YouJiSHx8fGkoqLC5JeamkrmzZtnVG9+fj4hhJBDhw6RJ0+eWCy3Jiu2yMhIcvjw4Rrjs5GohtbWGnZ91Nu/fz8GDRpkNHfueWpjxXbo0CFkZGSYLC8rKzMyOr579y5u3ryJhQsX4rfffoNKpcLBgweZ9AcPHhjdhvz9/fHf//7XbJ09e/bE1atXMWLECJtibMrYTXyVSoXk5GQjm1Nz2GLFduLECfj6+uLzzz83O9NWq9VCqVTi2LFjGDJkCIKDg7Fnzx4AVQZL48ePx4QJEwAAEokEEREROHDggE3b4enpiatXr9qUt6ljN/GPHTsGLy8vs424Z7HFim3ZsmX46quvmKlZlli7di3eeecdeHt7o6SkBFKpFJ6enlAqlZgxYwaAqvaBRCJhDgYAiIqKstgorJ6z3xywWydPYmIixowZU2M+W6zYWCwWpkyZgp49e+LKlSsmvw4dOmDKlClGjTJ3d3dcunQJAQEBMBgMoCiKuRpcuHABFEVhx44d8Pf3N3kR9CxlZWXNZtauXc78q1evQiwWIzQ0tMa8tbFik0qlcHV1NTJ0jI+Ph1gsNsm7bt06nDlzBlwuFzdv3rQ9+OfIyclBYGBgnddvSthF/P379+ODDz6wyfhwwIAB2L17t8WhWM9z8eJFI9dMuVzOWK4SQsBisbBp0yakpqZCqVQiMDCQGelTWwwGAzIyMpjyX3XqbcUGgHnetoWarNiepVOnTli+fDn69+/PLMvPz8elS5ewdetWPHnyBG5ubhg6dChGjhwJb29vAFUHSHx8PAAwl3AOh4Pjx4/j3r17Fg+6o0ePokuXLnj99ddt3p4mD2lkVmyrV6+2uu6WLVvI5s2byeXLl83mUSqVZOPGjSbLk5OTya5duwhFUSZpT548IaGhoUQkEtm4FTYR1dDaWqNOPXz2QCwWg8vlMmdrQ1NaWgqtVmtvt45G3cP3Slix2YOm+HWs+uJ4n9+McYjfjHGI34xxiN+McYjfjOECQGJiYpfG1vp+FejTp0+jnjjABYCkpCRfNze3vJoyO6gdQUFBjdrezoEDBw4cOHDgwIEDBw4cvHI0KSs2B3blbJOyYnNgXxx9+80Yh/jNGIf4zRiH+M0Yh/jNGIf4zRiH+M0Yh/jNmEZnxSYWi5Gdnc3UU5u58rGxsbh27Rrzv1qtNpqX/yyEEJSUlKCoqAgikQgPHz5EXl4esrOzceXKFfz5559ITU1FUlISEhISjOKYN28eysvL67iFwMqVK5Gb2/Af+6iXFVu1v93GjRuRkpICpVKJYcOGYfHixVZn4FqzYlOr1Vi0aBFiYmKwZMkSzJ49G7GxsRbLmjBhAsLDwwEAjx8/hkKhYNIoikJxscn3lRiWLl0KiUSCNm3aQCgUgqZpSCQSBAUFgc/ng8fjITc3F++99x4zq1ipVOKvv/5ijKIOHjxoMb7o6Gj0798fSqXSKI7bt28jODiYcQz19vbGvn374OzsbPZgfVE2cXWaqycSieDp6Qk+n4+YmBjcuHED0dHRoGkaX3/9Nfr27WvVNHHHjh3Iy8vDqlWrzKafPn0a33zzDaZNm4bIyEgjM4WxY8fiP//5DzOTls/n4/Dhw4iLi0NZWRmcnZ0RHBwMb29vnDp1CnK5HK1btwYhBN7e3khISDCqKyYmBgaDAUuWLMHdu3cxa9Ys7N69G15eXti5cydSU1OxY8cOcDgcSKVS5ObmIjY2Fhs2bABQNc3rWUF0Oh2+++47yOVyrFmzBi4uLrh16xbi4uKYPNevX0enTp3QqlXVJ4OEQiEuX76MuLg4i9PYvv/+e3h6etrTJm45gNrP0qUoitA0TWiaJn379iXp6elM2vnz50m/fv3MzoQlhBCFQkFCQkJIQUGB2XSdTkeWLl1KevXqRY4fP26S/uGHH5I7d+6YXXfBggXk3LlzzP8ikYiMGDGCEFI1u3fkyJFMmkQiIbt37ya//vorGTlyJImPjye7d+8mkZGRZMOGDWT37t3ks88+IzExMWT37t2kuLiYfPfdd2To0KEkJCSEjBo1ivTq1YsUFxcblTlp0iSyYsUKYjAYLO6/qVOnksuXLxOapsmGDRtIWFgYKSwstJifEEJKSkrIwIEDiVwut5qvFkTV6bIfGhqK2bNnY9CgQVCr1Ub2KNW2J0VFRWaP4gsXLqBTp04WZ8P+8ssvAIBVq1YhKSkJH374oc1xGQwGHDt2DLdv34ZMJkPr1q3h7u5uNm9RURH27NmDcePG4ZNPPoFEIoFCoUCfPn0AVN0yPv30UwDAgQMHEBAQgOXLlyM2Nhbe3t4YP348BgwYYGThcv78eXh4eOD//u//mGWJiYn4888/jep+8OAB1q9fD4PBgNzcXAQHB+PHH38EAAQGBiIyMtIkXi8vL7z55ps4d+6c3ZzC6jVL19nZGf7+/jh27BiCgoIAgPG/teR7U5MVW0REBHg8Hm7fvo0bN24AALKysph0nU6He/fuMQ0wPz8/pKWlYfPmzZDL5fjggw8wfPhw6HQ6LFq0CG5ubigvLzcyWpJKpXBycsKwYcMwYMAAAMDPP/+MNm3aMP8/S2VlJXN/zs3NxeDBg5kyVSoV085QKBQQCASQSqUAqgwhhgwZgt69ezNlqVQqJCQkID09HbNnz0Z0dLRRXUKh0OK+sbdNXL2naC9duhTz58/HlStX4OTkBFdXVwCWN6ImKzYej4fKykp8++23oCgKcrkcmzdvBkVVfSGtsrIS+/fvZ8qfPn06goOD8euvv2LdunUYOnQoXnvtNcjlciiVSnTr1g2jRo3Ctm3bUFFRAY1GgzFjxmD27NnIzc1Fbm4uVCoV8vPz8dZbb1lsh7DZbPzjH/9Afn4+AgMDcevWLXTt2hVLly7FkydPAFSZOmu1WsYN1NfXF+vWrUPbtm2hUCiQlJSEuLg4KJVKjBs3Dmq1GufPV31l3d/fHyEhIVb3tb1t4uotfu/evXH48GHcvHkTLi4ucHV1xeXLly2aLtRkxSaVSjFnzhxMnDgRiYmJkEql2LRpE5P+0UcfYenSpUYHkE6nA4vFgkwmg5OTE9RqNZYtW4bhw4dj8eLFuH79Ojp27AhXV1ckJSXBz88Po0aNwqhRowAAP/zwA9zc3DB16lSzMQUFBUEoFOLx48dwcnKCWCxGamoqevfuzTxpAFWmkbdu3cKyZX+3nbOysnDgwAH88ccfaNGihVmj6vz8fFy/fr1G8e1tE2cXc4a2bdti8ODBAIBNmzahZ8+eFh/1arJi27VrF0aMGIHRo0fjyJEjNm1sSkoKoqOj0alTJwQHB2PevHlo0aIF5s2bBwB4++23AVRdJaKjo/HNN98w6166dAknTpxAZWUlXFxcjOJ+9OgRcnJykJycDKFQiPbt2+OHH37AV199BbVajX379tUY28WLF+Hl5YW1a9di9erVCA4ONsmj1+tRUlJSY1n2tomrt/glJSXw9PQEm83GtWvXsG/fPqvP5TVZsf3rX/8yDpBbc4gjRoxAr169GAHDw8PRt29fsFgs3LlzB507dwaPx4NQKMTmzZvRs2dPAFX372XLlmHz5s1IT0/H+fPnER0dDV9fX5w+fRoXL17E2rVr4ePDfJgbPXr0QO/evXH8+HH8/vvviIyMtPotn+pHs3v37kEul2PXrl0meUpLS806jT6PvW3i6i3+77//jr1790IoFIKiKCxZsoTZueaw1YpNpVKhsLDQZs+eX375BV27dkVAQABWr16NNWvWoEuXLkhMTETnzp0xadIkuLq64vvvv0diYiIyMjKwYsUKLF26FIGBgQgMDISPjw/Gjh2Ljh07orKyEtu2bUPHjh2N6tm/fz/u3LmDgwcPYuHChXj77bfRt29fAH+7kVvC09MTK1asMFl+/vx5HDp0yOr2vQibOLsYMj19+hRarRY+Pj429UDNnTsXAwYMMGvFlpycjN9++w0SiQT9+vWDn58ftm7dyqQrlUoIhULmI0pBQUFYuHAh5t+BcNcAAAFtSURBVM2bh4MHD4LH4zHixsbGQiwWY+rUqTh69CgEAgHmz5+PoKAglJeXo0ePHuDxeLh//z5u3LiBrKws9OrVC507d8bp06dRXFyM7t27w9fXF927d4dEIkFiYiI2b94Mb29vGAwGcLlcphF37tw5fPTRR2bt5u/du4cJEyagffv2JmlqtRqBgYFWr5hJSUk4deoUNm7cWOP+tZG6dfLUF2tWbGVlZeTKlSskLy+P6UgyGAwWfxRFkYcPH5KLFy8yZWg0GpKVlcX8/6y9mlQqJSqVioljwYIFZOvWrSQ9PZ1oNBqjWIqLi0lqairZsmULyczMJI8ePTLbyZKWlkYSEhJISkoK0ev1Zre5uLiYrFmzxmxaTk4OiYuLs7i/XpRNnMOKrQnwomziHFZsTYAXZRPneJ/fjHGI34xxiN+McYjfjHGI34zhAkB2dnZra1/EcvDq0a5du6oevrCwsEI+n1/zZzIcvDLEx8eP/v9O47ZJmExspgAAAABJRU5ErkJggg==;" vertex="1" parent="1">
          <mxGeometry x="466.99666666666695" y="79" width="127" height="150" as="geometry" />
        </mxCell>
      </root>
    </mxGraphModel>
  </diagram>
</mxfile>
